***************************************************************
 
http://www.torrentforce.org/imghost/3/greyshadow_tfbanner.png

***************************************************************
 
http://www.torrentforce.org/imghost/4/greyshadow_thetreeoflife.jpg

***************************************************************

FILM TITLE: The Tree of Life (2011)

***************************************************************

Genre: Drama    

Release: 8 July 2011 (UK)

Director: 

Writer: 

Stars: 

Country: USA

Language: English

Plot:
The story centers around a family with three boys in the 1950s. 
The eldest son witnesses the loss of innocence.

Director: Terrence Malick

Writer: Terrence Malick

Stars: Brad Pitt, Sean Penn and Jessica Chastain

IMDB Rating: 7.7/10 from (20,716 votes)
 
http://www.imdb.com/title/tt0478304/ 

****************************************************************
 
http://pix2links.com/images/49410079155233530380.png 
http://pix2links.com/images/82204150062657022223.png 
http://pix2links.com/images/94770815523296539130.png 
http://pix2links.com/images/45787325499631309655.png

****************************************************************

[IMG]http://www.torrentforce.org/imghost/2/greyshadow_mediainfo.png[/IMG]
General
Complete name                    : The Tree Of Life 2011 720p BRRip XviD ac3 (avi) [TFRG].avi
Format                           : AVI
Format/Info                      : Audio Video Interleave
Format profile                   : OpenDML
File size                        : 2.74 GiB
Duration                         : 2h 18mn
Overall bit rate                 : 2828 Kbps
Writing library                  : VirtualDub build 32842/release

Video
ID                               : 0
Format                           : MPEG-4 Visual
Format profile                   : Simple@L5
Format settings, BVOP            : No
Format settings, QPel            : No
Format settings, GMC             : No warppoints
Format settings, Matrix          : Default (H.263)
Codec ID                         : XVID
Codec ID/Hint                    : XviD
Duration                         : 2h 18mn
Bit rate                         : 2498 Kbps
Width                            : 1280 pixels
Height                           : 688 pixels
Display aspect ratio             : 1.860
Frame rate                       : 23.976 fps
Color space                      : YUV
Chroma subsampling               : 4:2:0
Bit depth                        : 8 bits
Scan type                        : Progressive
Compression mode                 : Lossy
Bits/(Pixel*Frame)               : 0.118
Stream size                      : 2.42 GiB (88%)
Writing library                  : XviD 64

Audio
ID                               : 1
Format                           : AC-3
Format/Info                      : Audio Coding 3
Mode extension                   : CM (complete main)
Codec ID                         : 2000
Duration                         : 2h 18mn
Bit rate mode                    : Constant
Bit rate                         : 320 Kbps
Channel(s)                       : 6 channels
Channel positions                : Front: L C R, Side: L R, LFE
Sampling rate                    : 48.0 KHz
Bit depth                        : 16 bits
Compression mode                 : Lossy
Stream size                      : 318 MiB (11%)
Alignment                        : Aligned on interleaves
Interleave, duration             : 42 ms (1.00 video frame)
Interleave, preload duration     : 512 ms

****************************************************************

Video Source: The Tree Of Life 2011 BluRay 1080p AVC DTS-HD MA7.1-CHDBits (45.9GB)

Thanks: (chdbits.org)

****************************************************************

I provide a small sample, so please download this to check your 
compatibility first if you are unsure.

****************************************************************

A big thanks to all the sites out there who care and share and
who make it possible for you to download this torrent for free.

Greetz to Westy, Ripwyn, mustang, noir, Blackjesus, MXMG, The Stig 
and all the other outstanding members of our community of file 
sharers and a special mention to our friends at 1337x.

****************************************************************